<svg width="305" height="389" viewBox="0 0 305 389" fill="none" xmlns="http://www.w3.org/2000/svg">
<path fill-rule="evenodd" clip-rule="evenodd" d="M229.425 1.0173C224.245 2.74297 219.588 5.33344 216.213 8.36686C212.738 11.489 207.542 18.3594 206.783 20.8336C206.114 23.0114 204.103 22.6486 202.504 20.0614C200.352 16.5812 193.943 11.0106 189.728 8.95566C183.929 6.12859 180.297 5.24078 174.534 5.24078C166.165 5.24078 158.335 8.26368 152.211 13.8593C147.113 18.5165 142.038 26.1663 141.044 30.6941C140.246 34.3268 138.984 34.6711 136.213 32.013C132.994 28.925 127.405 25.5302 122.931 23.9458C117.939 22.1788 106.912 22.1814 102.223 23.9518C93.766 27.1435 85.4489 34.4635 81.8892 41.8472C77.3862 51.1885 77.3645 51.3278 76.955 73.5603L76.5855 93.5941L71.4297 97.054C68.5938 98.9571 66.0051 100.348 65.6776 100.146C65.3496 99.9435 65.0814 93.899 65.0814 86.7145C65.0814 67.2169 63.2815 61.2271 54.9066 52.855C49.8119 47.7621 45.702 45.4687 38.4577 43.6747C31.0405 41.838 22.1009 43.5676 14.7666 48.2576C7.72475 52.7604 4.73963 56.8157 0.58699 67.5218C0.256988 68.3715 0.00126467 100.44 0.00126467 140.917C0.00126467 218.989 -0.176887 214.863 3.69571 226.417C6.87345 235.897 13.1829 248.981 19.0533 258.262C21.105 261.506 26.1267 268.587 26.951 269.399C27.1344 269.58 28.2802 270.911 29.4964 272.356C33.5892 277.219 40.5192 284.158 44.9204 287.799L49.2886 291.414L49.2965 311.514C49.3057 334.796 50.1209 342.494 53.3952 350.228C56.1253 356.676 60.1018 362.811 65.0531 368.212C70.5397 374.196 84.8297 382.017 95.6494 384.956C105.555 387.648 119.533 389 137.436 389C177.034 389 201.558 381.924 217.625 365.862C226.426 357.064 233.032 344.846 236.382 331.171C237.017 328.576 237.274 322.171 237.29 308.461C237.308 294.201 237.522 289.104 238.136 288.336C238.588 287.77 240.829 286.087 243.116 284.594C249.873 280.184 259.568 272.174 266.017 265.67C283.001 248.545 293.868 229.344 299.983 205.656C301.436 200.032 302.172 196.039 304.354 181.945C305.236 176.248 305.21 163.119 304.308 159.172C301.839 148.36 299.332 141.586 293.506 129.984C287.733 118.49 280.981 108.467 275.87 103.806C272.318 100.565 272.076 99.8863 273.174 96.2411C274.64 91.3703 274.566 34.9208 273.086 29.2556C269.611 15.9582 259.675 4.88658 247.974 1.27359C242.834 -0.313423 233.795 -0.438281 229.425 1.0173ZM246.503 17.8561C250.061 19.75 253.866 24.0431 256.205 28.8022L258.021 32.4979V62.0695C258.021 94.1297 257.991 94.4432 254.305 100.528C252.101 104.166 249.972 106.067 245.698 108.212C241.203 110.47 238.16 110.758 233.686 109.351C226.726 107.163 221.45 100.901 219.16 92.1109C217.864 87.1396 217.892 38.7934 219.193 33.3516C220.187 29.1938 223.278 23.3537 225.608 21.2285C228.054 18.9988 232.368 16.5293 234.423 16.183C238.073 15.5685 243.658 16.342 246.503 17.8561ZM182.423 23.0469C186.434 25.063 191.131 30.6461 192.956 35.5662C194.179 38.8618 194.256 40.8043 194.256 68.3124V97.5554L192.389 101.964C190.287 106.926 186.002 111.688 181.793 113.736C179.903 114.655 177.758 115.03 174.362 115.036C166.625 115.047 161.33 111.422 157.503 103.493C154.682 97.6461 154.483 95.3106 154.508 68.1855C154.533 41.3379 154.796 38.1658 157.475 32.5236C159.2 28.8889 164.837 23.4878 168.289 22.161C172.431 20.5701 178.216 20.9328 182.423 23.0469ZM119.807 39.9184C125.193 42.3078 130.023 48.5534 131.82 55.4488C133.239 60.8939 133.239 109.903 131.82 115.348C129.203 125.39 121.083 132.747 112.665 132.703C107.044 132.673 100.457 128.723 97.0917 123.363C93.0199 116.877 93.0199 116.876 93.0199 84.7411V55.4981L95.5272 50.3691C97.5197 46.2934 98.7654 44.6742 101.595 42.4833C107.376 38.0081 113.544 37.1394 119.807 39.9184ZM39.1355 60.5055C43.0081 62.3252 46.926 66.8338 48.0547 70.7701C48.7246 73.1063 48.9547 79.0554 48.9639 94.2697C48.9757 114.093 48.9356 114.728 47.4808 117.854C41.358 131.013 23.7746 131.506 17.5045 118.694L15.7783 115.168V93.3608C15.7783 71.6224 15.7835 71.5449 17.3606 68.455C20.4831 62.3377 25.4627 59.1807 32.0555 59.1386C34.9217 59.1202 37.0713 59.5349 39.1355 60.5055ZM211.419 112.439C215.617 118.156 223.429 123.194 231.256 125.232C241.173 127.814 252.895 124.613 260.979 117.115C262.245 115.942 263.627 114.978 264.051 114.976C265.115 114.968 270.068 120.993 273.228 126.141C277.942 133.819 283.903 146.174 286.067 152.756C290.133 165.117 290.206 171.167 286.552 192.513C285.387 199.318 282.413 210.123 280.131 215.842C278.538 219.835 270.562 235.228 270.086 235.228C269.778 235.228 269.525 235.539 269.525 235.92C269.525 237.575 261.434 247.376 253.809 254.958C245.543 263.175 244.771 263.848 237.971 268.762C235.983 270.199 234.06 271.597 233.698 271.871C225.463 278.086 201.647 288.471 189.654 291.076C179.087 293.371 174.604 294.272 170.59 294.903C160.577 296.48 153.813 297.229 146.267 297.599L138.379 297.985L138.192 305.49C138.062 310.708 138.24 313.14 138.777 313.471C140.65 314.628 167.481 311.992 180.451 309.377C195.509 306.34 210.785 301.778 217.748 298.237C218.375 297.917 219.485 297.657 220.213 297.657C221.499 297.657 221.537 298.063 221.537 311.701C221.537 324.926 221.439 326.049 219.874 330.923C217.671 337.775 214.256 344.865 211.12 349.093C205.07 357.253 195.707 363.803 185.511 367.01C183.813 367.544 181.536 368.262 180.451 368.605C171.615 371.397 156.231 372.903 136.735 372.883C120.125 372.866 111.254 372.167 102.552 370.192C84.6607 366.129 72.922 356.887 67.5387 342.626C66.1228 338.874 66.055 337.692 65.7388 311.018C65.558 295.776 65.2622 283.197 65.0814 283.063C64.9006 282.928 62.5341 281.172 59.8224 279.161C43.862 267.318 30.7855 250.222 22.1975 229.97C19.9224 224.606 19.5036 223.49 18.0074 218.807L16.4356 213.886V177.242C16.4356 157.088 16.5448 140.599 16.6789 140.599C16.8123 140.599 18.8094 141.223 21.1161 141.986C29.4385 144.741 38.2579 144.332 45.7519 140.844C47.5952 139.986 49.5766 139.284 50.1557 139.284C50.8032 139.284 51.9812 140.9 53.2092 143.473C58.1763 153.877 69.3958 163.023 84.1454 168.692C88.5412 170.382 89.3537 170.629 96.6355 172.49C104.629 174.533 110.095 174.955 133.723 175.356C148.54 175.607 157.409 176 157.535 176.413C157.645 176.774 156.202 178.105 154.329 179.37C147.93 183.691 136.185 196.263 131.613 203.685C129.521 207.08 122.931 220.497 122.931 221.359C122.931 221.768 122.662 222.616 122.335 223.244C121.717 224.427 120.27 229.865 119.059 235.556C118.675 237.363 118.162 241.459 117.92 244.658C117.57 249.28 117.668 250.594 118.397 251.056C119.541 251.779 131.506 251.827 132.632 251.112C133.124 250.799 133.699 248.051 134.051 244.334C134.89 235.466 136.683 228.98 140.562 220.77C149.765 201.294 167.957 185.585 188.668 179.229C197.731 176.448 200.427 175.939 208.389 175.508L215.949 175.099L216.135 167.693C216.28 161.908 216.125 160.213 215.423 159.944C214.928 159.754 191.031 159.52 162.318 159.424C124.595 159.298 109.2 159.031 106.825 158.463C105.017 158.031 102.059 157.36 100.251 156.973C85.5304 153.822 72.2068 145.53 67.6019 136.656C65.4693 132.545 65.4936 126.935 67.663 122.692C69.3104 119.469 75.4457 112.826 76.2917 113.349C76.5546 113.511 77.2863 115.791 77.9174 118.414C80.9472 131.01 88.7003 140.83 99.5365 145.797C107.672 149.526 118.7 149.218 127.532 145.015C134.413 141.741 141.827 133.688 144.909 126.141C145.574 124.515 146.54 122.211 147.057 121.022L147.998 118.86L151.665 122.211C160.945 130.689 172.917 133.441 184.324 129.717C190.237 127.786 192.885 126.242 197.66 121.942C200.973 118.957 205.74 112.235 206.706 109.185C207.295 107.323 208.04 107.837 211.419 112.439Z" fill="#4FD1C5"/>
</svg>
