<svg width="464" height="592" viewBox="0 0 464 592" fill="none" xmlns="http://www.w3.org/2000/svg">
<path fill-rule="evenodd" clip-rule="evenodd" d="M349.002 1.54806C341.121 4.17406 334.037 8.11605 328.903 12.7321C323.618 17.4831 315.713 27.9381 314.558 31.7031C313.541 35.0171 310.482 34.4651 308.049 30.5281C304.775 25.2321 295.027 16.7551 288.615 13.6281C279.793 9.32606 274.268 7.97506 265.502 7.97506C252.77 7.97506 240.86 12.5751 231.543 21.0901C223.788 28.1771 216.069 39.8181 214.556 46.7081C213.342 52.2361 211.422 52.7601 207.207 48.7151C202.311 44.0161 193.808 38.8501 187.002 36.4391C179.409 33.7501 162.635 33.7541 155.502 36.4481C142.637 41.3051 129.985 52.4441 124.57 63.6801C117.72 77.8951 117.687 78.107 117.064 111.939L116.502 142.425L108.659 147.69C104.345 150.586 100.407 152.703 99.9089 152.395C99.4099 152.087 99.0019 142.889 99.0019 131.956C99.0019 102.286 96.2639 93.1711 83.5239 80.4311C75.7739 72.6811 69.5219 69.1911 58.5019 66.4611C47.2189 63.6661 33.6199 66.2981 22.4629 73.4351C11.7509 80.2871 7.20993 86.4581 0.89293 102.75C0.39093 104.043 0.00192381 152.843 0.00192381 214.438C0.00192381 333.242 -0.269081 326.963 5.62192 344.546C10.4559 358.972 20.0539 378.882 28.9839 393.005C32.1049 397.942 39.7439 408.717 40.9979 409.953C41.2769 410.228 43.0199 412.253 44.8699 414.453C51.0959 421.853 61.6379 432.412 68.3329 437.953L74.9779 443.453L74.9899 474.04C75.0039 509.469 76.2439 521.184 81.2249 532.953C85.3779 542.765 91.4269 552.1 98.9589 560.319C107.305 569.425 129.043 581.326 145.502 585.799C160.571 589.895 181.833 591.953 209.068 591.953C269.304 591.953 306.61 581.185 331.052 556.743C344.44 543.355 354.489 524.763 359.584 503.953C360.551 500.004 360.941 490.257 360.966 469.394C360.993 447.694 361.319 439.939 362.252 438.77C362.94 437.909 366.349 435.347 369.828 433.076C380.107 426.365 394.855 414.175 404.666 404.278C430.501 378.218 447.032 349 456.335 312.953C458.544 304.395 459.664 298.319 462.983 276.871C464.325 268.202 464.285 248.223 462.914 242.217C459.158 225.764 455.344 215.456 446.481 197.801C437.699 180.31 427.428 165.058 419.654 157.964C414.251 153.033 413.883 152 415.552 146.453C417.783 139.041 417.67 53.1401 415.418 44.5191C410.133 24.2841 395.018 7.43606 377.219 1.93806C369.4 -0.476944 355.649 -0.666944 349.002 1.54806ZM374.98 27.1721C380.393 30.0541 386.181 36.5871 389.739 43.8291L392.502 49.4531V94.4531C392.502 143.24 392.456 143.717 386.849 152.976C383.496 158.512 380.258 161.405 373.756 164.67C366.918 168.105 362.289 168.544 355.483 166.403C344.896 163.073 336.87 153.544 333.386 140.168C331.415 132.603 331.457 59.0331 333.436 50.7521C334.948 44.4251 339.65 35.5381 343.195 32.3041C346.916 28.9111 353.479 25.1531 356.604 24.6261C362.157 23.6911 370.653 24.8681 374.98 27.1721ZM277.502 35.0711C283.603 38.1391 290.749 46.6351 293.525 54.1221C295.385 59.1371 295.502 62.0931 295.502 103.953V148.453L292.663 155.161C289.465 162.713 282.946 169.959 276.543 173.075C273.668 174.474 270.405 175.045 265.239 175.053C253.47 175.071 245.415 169.554 239.594 157.488C235.302 148.591 235 145.037 235.038 103.76C235.075 62.9051 235.476 58.0781 239.551 49.4921C242.175 43.9611 250.75 35.7421 256.002 33.7231C262.302 31.3021 271.102 31.8541 277.502 35.0711ZM182.251 60.7451C190.443 64.3811 197.791 73.8851 200.524 84.3781C202.683 92.6641 202.683 167.242 200.524 175.528C196.544 190.81 184.192 202.005 171.386 201.938C162.836 201.893 152.815 195.881 147.696 187.725C141.502 177.856 141.502 177.854 141.502 128.953V84.4531L145.316 76.6481C148.347 70.4461 150.242 67.9821 154.547 64.6481C163.34 57.8381 172.723 56.5161 182.251 60.7451ZM59.5329 92.0731C65.4239 94.8421 71.3839 101.703 73.1009 107.693C74.1199 111.248 74.4699 120.301 74.4839 143.453C74.5019 173.618 74.4409 174.585 72.2279 179.342C62.9139 199.367 36.1659 200.117 26.6279 180.62L24.0019 175.254V142.07C24.0019 108.99 24.0099 108.872 26.4089 104.17C31.1589 94.8611 38.7339 90.057 48.7629 89.993C53.1229 89.965 56.3929 90.5961 59.5329 92.0731ZM321.611 171.102C327.997 179.801 339.881 187.468 351.787 190.569C366.873 194.499 384.704 189.627 397.002 178.218C398.927 176.432 401.03 174.966 401.675 174.962C403.293 174.95 410.827 184.119 415.635 191.953C422.806 203.636 431.873 222.438 435.165 232.453C441.35 251.264 441.462 260.47 435.903 292.953C434.131 303.308 429.607 319.75 426.135 328.453C423.712 334.529 411.579 357.953 410.855 357.953C410.386 357.953 410.002 358.427 410.002 359.006C410.002 361.525 397.694 376.44 386.094 387.977C373.52 400.482 372.346 401.506 362.002 408.983C358.977 411.17 356.052 413.298 355.502 413.714C342.975 423.172 306.745 438.975 288.502 442.939C272.427 446.432 265.608 447.802 259.502 448.763C244.27 451.163 233.98 452.303 222.502 452.865L210.502 453.453L210.218 464.873C210.02 472.813 210.291 476.514 211.108 477.019C213.957 478.779 254.773 474.768 274.502 470.788C297.409 466.167 320.647 459.224 331.238 453.836C332.193 453.35 333.881 452.953 334.988 452.953C336.944 452.953 337.002 453.572 337.002 474.325C337.002 494.449 336.854 496.158 334.472 503.575C331.122 514.002 325.927 524.791 321.156 531.226C311.952 543.642 297.709 553.61 282.2 558.49C279.616 559.303 276.152 560.395 274.502 560.917C261.061 565.166 237.659 567.457 208.002 567.427C182.734 567.401 169.239 566.338 156.002 563.332C128.786 557.15 110.929 543.086 102.74 521.385C100.586 515.675 100.483 513.876 100.002 473.285C99.7269 450.092 99.2769 430.949 99.0019 430.745C98.7269 430.54 95.1269 427.868 91.0019 424.807C66.7229 406.786 46.8309 380.771 33.7669 349.953C30.3059 341.79 29.6689 340.092 27.3929 332.965L25.0019 325.477V269.715C25.0019 239.046 25.1679 213.953 25.3719 213.953C25.5749 213.953 28.6129 214.904 32.1219 216.065C44.7819 220.257 58.1979 219.634 69.5979 214.326C72.4019 213.021 75.4159 211.953 76.2969 211.953C77.2819 211.953 79.0739 214.412 80.9419 218.327C88.4979 234.16 105.565 248.077 128.002 256.704C134.689 259.275 135.925 259.651 147.002 262.483C159.162 265.592 167.476 266.235 203.42 266.844C225.959 267.226 239.451 267.825 239.642 268.453C239.809 269.003 237.615 271.028 234.765 272.953C225.031 279.528 207.165 298.659 200.21 309.953C197.028 315.12 187.002 335.537 187.002 336.849C187.002 337.471 186.594 338.762 186.096 339.717C185.156 341.518 182.955 349.792 181.113 358.453C180.528 361.203 179.748 367.436 179.38 372.304C178.848 379.337 178.997 381.336 180.106 382.039C181.846 383.14 200.047 383.212 201.76 382.124C202.508 381.649 203.383 377.466 203.918 371.811C205.195 358.316 207.922 348.445 213.823 335.953C227.823 306.315 255.497 282.41 287.002 272.738C300.788 268.506 304.889 267.732 317.002 267.076L328.502 266.453L328.785 255.184C329.006 246.38 328.769 243.801 327.701 243.391C326.949 243.102 290.597 242.747 246.918 242.601C189.534 242.409 166.115 242.003 162.502 241.138C159.752 240.48 155.252 239.459 152.502 238.871C130.109 234.076 109.841 221.458 102.836 207.953C99.5919 201.698 99.6289 193.161 102.929 186.704C105.435 181.8 114.768 171.69 116.055 172.486C116.455 172.733 117.568 176.202 118.528 180.194C123.137 199.362 134.931 214.305 151.415 221.864C163.79 227.538 180.566 227.069 194.002 220.673C204.469 215.691 215.748 203.437 220.436 191.953C221.447 189.478 222.917 185.972 223.704 184.163L225.134 180.873L230.713 185.972C244.829 198.873 263.042 203.061 280.394 197.394C289.389 194.456 293.417 192.106 300.68 185.563C305.72 181.021 312.972 170.792 314.441 166.15C315.338 163.317 316.47 164.099 321.611 171.102Z" fill="white"/>
</svg>
